PathFileType	4	(X/Y/Z)	C:\Github\BTS_project\Data\sports2d_results\Single_Hop4 Exam_2026-03-06_123833_tvc2_Sports2D\Single_Hop4 Exam_2026-03-06_123833_tvc2_Sports2D_m_person00.trc
DataRate	CameraRate	NumFrames	NumMarkers	Units	OrigDataRate	OrigDataStartFrame	OrigNumFrames
30.0	30.0	9	22	m	30.0	104	278
Frame#	Time	Hip			RHip			RKnee			RAnkle			RBigToe			RSmallToe			RHeel			LHip			LKnee			LAnkle			LBigToe			LSmallToe			LHeel			Neck			Head			Nose			RShoulder			RElbow			RWrist			LShoulder			LElbow			LWrist			
		X1	Y1	Z1	X2	Y2	Z2	X3	Y3	Z3	X4	Y4	Z4	X5	Y5	Z5	X6	Y6	Z6	X7	Y7	Z7	X8	Y8	Z8	X9	Y9	Z9	X10	Y10	Z10	X11	Y11	Z11	X12	Y12	Z12	X13	Y13	Z13	X14	Y14	Z14	X15	Y15	Z15	X16	Y16	Z16	X17	Y17	Z17	X18	Y18	Z18	X19	Y19	Z19	X20	Y20	Z20	X21	Y21	Z21	X22	Y22	Z22
104	3.4791817087845973	1.2899610825953662	0.7505059740803699	0.0301	1.2130532903439533	0.6736550506164377	0.0301	1.4027724605538583	0.35801870364314375	0.129	1.5692585244730313	0.20948709225717116	0.023	1.6463205463771273	0.07862425385543055	0.2179	1.5921114445765367	0.06689505943264963	0.1804	1.5964615344905246	0.21184117804692004	-0.0119	1.393813530168412	0.7986561517690475	0.0301	1.634786607776969	0.47634768377546904	0.129	1.8242002081548834	0.16522289150142108	0.023	1.8913835106340655	0.0636073240999509	0.2179	1.9339096808021414	0.11592688885905393	0.1804	1.8350442876075241	0.10465031448238624	-0.0119	0.9779345475484518	1.254187450296527	0.0008	0.8414982024568568	1.4713822007498223	0.0655	0.9330967485494058	1.3422220210282512	0.1076	0.826135113870464	1.0997481327742558	-0.01275	0.8118748296634578	0.8538088048553198	0.0702	1.0195501764834958	0.7132218073490472	0.1076	1.1632859072733424	1.3251823582509958	-0.01275	1.414668670404759	1.2769843783262043	0.0702	1.4379841084772438	1.0417791262720468	0.1076
105	3.5126353790613725	1.289242509529322	0.7513545271367045	0.0301	1.211487163587189	0.6754039277962993	0.0301	1.4026933469960716	0.3578635304414163	0.129	1.5704343816919366	0.20819187434163375	0.023	1.6459650708388254	0.07681512975799891	0.2179	1.5912769519934158	0.06623780558906298	0.1804	1.5980964844403576	0.20990020550876207	-0.0119	1.3948144657021153	0.7998132570710841	0.0301	1.6360618240673548	0.4773026739459683	0.129	1.8239044372339979	0.1655027076168991	0.023	1.8911452371950839	0.06383613355263436	0.2179	1.9339168580113981	0.11465333634752005	0.1804	1.834592437425788	0.10518573280688351	-0.0119	0.9768760577058739	1.2530711633838045	0.0008	0.8436604479325704	1.4712646635758881	0.0655	0.9327009158068694	1.3427235409144442	0.1076	0.8258803021473395	1.0998930131638502	-0.01275	0.8106335671786571	0.8558258206990328	0.0702	1.0173041415499737	0.7135823335458343	0.1076	1.1632016914601884	1.326474283710374	-0.01275	1.4156053500205654	1.2752419355958262	0.0702	1.4398957537952775	1.0428335005554408	0.1076
106	3.5460890493381476	1.2891751828881515	0.7515615739775328	0.0301	1.2120266547760798	0.6751922786178305	0.0301	1.4029535130708684	0.35739699082697474	0.129	1.5710597041439387	0.20767117248653785	0.023	1.6453041951534166	0.07428739581686158	0.2179	1.5904706580262122	0.0646259050733644	0.1804	1.5996198497306182	0.20837498545992528	-0.0119	1.3980527702836831	0.7986502999749023	0.0301	1.6375336622799663	0.47766580324244684	0.129	1.8233844221456197	0.1660372687521048	0.023	1.8890981931530262	0.06407443700554422	0.2179	1.9345344684059937	0.11349243663322942	0.1804	1.8338782938906375	0.10595440642137234	-0.0119	0.9766015927220902	1.2529190260369245	0.0008	0.8433474922322565	1.4726988872586335	0.0655	0.931172455014315	1.3447050445176802	0.1076	0.8261554613369828	1.0982372714829767	-0.01275	0.810856655470734	0.855279591299364	0.0702	1.0159723002073817	0.7125888018113176	0.1076	1.165510036367877	1.3278462175415842	-0.01275	1.4149376127783229	1.2735620053747843	0.0702	1.4407968382395697	1.0432853055179163	0.1076
107	3.5795427196149223	1.290197334631713	0.750385176446265	0.0301	1.2134609831677274	0.6738195300602714	0.0301	1.4038068308930904	0.35715460575177044	0.129	1.5721720649043605	0.20636241302020922	0.023	1.6455244365910953	0.07162686348930189	0.2179	1.590844145187647	0.062085452107403676	0.1804	1.6012149830473492	0.2068439552065271	-0.0119	1.4005994458655544	0.7969802561871958	0.0301	1.6377394149258055	0.47681121325678516	0.129	1.8233869525443835	0.16606161123230115	0.023	1.8869898573768171	0.06424787777657573	0.2179	1.9352393812656556	0.1128665538418828	0.1804	1.8338487493886229	0.10595902011535935	-0.0119	0.9770989631118416	1.253325755099212	0.0008	0.8410167078608224	1.4750234969902938	0.0655	0.931272110575439	1.3450224218453408	0.1076	0.8270500686757158	1.0947389508667957	-0.01275	0.8117688292696078	0.8525166159112352	0.0702	1.0167526931831767	0.710792625190552	0.1076	1.1698328298257938	1.3279425761154928	-0.01275	1.4127641227542838	1.2722694732150412	0.0702	1.4396292513566085	1.0429820289210794	0.1076
108	3.6129963898916975	1.2910083743049627	0.7486744774481274	0.0301	1.2144795155632784	0.6717480087301598	0.0301	1.4053591949085775	0.35749842316681907	0.129	1.5739557977844367	0.2038649653711376	0.023	1.646333126876001	0.06965774371418379	0.2179	1.5921982305253795	0.059374961090300896	0.1804	1.6032769465923644	0.20459667476711607	-0.0119	1.4007253653906109	0.7953013065250903	0.0301	1.6366051792907568	0.47536625002835436	0.129	1.8243979917415583	0.1649895303415173	0.023	1.886211357696971	0.0653328576573564	0.2179	1.935824185825207	0.11252910637376873	0.1804	1.834941383375391	0.10470481236044442	-0.0119	0.9777418369908927	1.2529861604269372	0.0008	0.8387931255474619	1.4773498183183957	0.0655	0.9324070876671818	1.3441616201734952	0.1076	0.8279947581160578	1.0906627075596154	-0.01275	0.8119636285270666	0.8497622192572963	0.0702	1.0177828376106262	0.7103669966938725	0.1076	1.1730764219107186	1.3267669908567339	-0.01275	1.4108863293443294	1.2715878605846522	0.0702	1.4375973943086764	1.0426155607510816	0.1076
109	3.646450060168472	1.2904796236917286	0.7477449101169354	0.0301	1.215073780765985	0.6691941259152765	0.0301	1.4075222478379938	0.35789622373453217	0.129	1.575835985793977	0.20160952564380102	0.023	1.6467136639106417	0.06897459752060776	0.2179	1.5930812703746564	0.057892182368102174	0.1804	1.6052785487207812	0.20231388831476965	-0.0119	1.3994620889489242	0.7933690003187148	0.0301	1.6354549872783357	0.4745663319393201	0.129	1.8254491575023597	0.16384183276361158	0.023	1.8867916906297546	0.06721281871513611	0.2179	1.9360964295226382	0.11235544561510565	0.1804	1.836107370744486	0.10348414894985378	-0.0119	0.9784317807877772	1.2519178426024342	0.0008	0.8379716823246289	1.4786299758782884	0.0655	0.9326009173686413	1.3441049519899668	0.1076	0.8278678802666862	1.0879424092380214	-0.01275	0.8114555842261088	0.8486608473961166	0.0702	1.017485902221514	0.7110905444935032	0.1076	1.1733461536345478	1.3260062819652914	-0.01275	1.4105524950751345	1.2718086868255145	0.0702	1.4366126893783067	1.0428737934145065	0.1076
110	3.6799037304452473	1.2896669639491911	0.7478922531694574	0.0301	1.2148404515788715	0.6683953495418634	0.0301	1.409323318372598	0.35776798871908727	0.129	1.5774713994057106	0.20078085254921302	0.023	1.6468837117952957	0.06894568111381946	0.2179	1.593110622704836	0.05809438329798453	0.1804	1.606082965094748	0.20132498408586777	-0.0119	1.3980041770317042	0.7928094094466998	0.0301	1.6347754864204942	0.4746833534642687	0.129	1.8256838374402293	0.1635475671781792	0.023	1.8877647799727781	0.06845076050932802	0.2179	1.9362225900487378	0.11215358659387313	0.1804	1.8363322701852514	0.10338898585531582	-0.0119	0.978992002427099	1.2514529539827886	0.0008	0.8384472756071505	1.4783810220124183	0.0655	0.9322053844883479	1.3446714392729977	0.1076	0.8266287681005112	1.0880223245932048	-0.01275	0.811028803418805	0.8497369439565361	0.0702	1.0164406435508062	0.7113594768052846	0.1076	1.171759279432736	1.3265882123607493	-0.01275	1.4112882262394437	1.2725930065530182	0.0702	1.436844366392214	1.0438988676486203	0.1076
111	3.7133574007220225	1.2896552514794133	0.7484381257341903	0.0301	1.2136855451688764	0.6701534890553649	0.0301	1.409605745676056	0.35737106129941043	0.129	1.5781550792944365	0.20100331704833546	0.023	1.6472223613374903	0.06863155528265984	0.2179	1.593118948523772	0.05884233801451738	0.1804	1.6051712514569532	0.20193538532511865	-0.0119	1.3968222325120405	0.7939772421547991	0.0301	1.634333705951471	0.4749886881606335	0.129	1.8256169511356084	0.16358180255060925	0.023	1.8880145562706572	0.06850638832757665	0.2179	1.936403131468084	0.1121147725810598	0.1804	1.8358591091020569	0.10360282562139099	-0.0119	0.9790199202633706	1.2521017807198238	0.0008	0.839141499286837	1.4777162622934075	0.0655	0.9322225941151826	1.3452250722626078	0.1076	0.8256477110584011	1.0897285085240778	-0.01275	0.8110333083573479	0.8520551976118875	0.0702	1.0159118996771943	0.7109197428362828	0.1076	1.1703606381905518	1.327670212806989	-0.01275	1.411863923392328	1.273073986916853	0.0702	1.436746148718564	1.0447485267992942	0.1076
112	3.746811070998797	1.2896115845351144	0.7484757382421131	0.0301	1.2124300909595034	0.671842180388633	0.0301	1.4086820242679232	0.3570223483644895	0.129	1.5769248970428327	0.20080159738667103	0.023	1.647382766705822	0.06808016862923393	0.2179	1.5934746300204436	0.05914823892442398	0.1804	1.6036358282368344	0.20255743356915343	-0.0119	1.3962295144095462	0.7945608275490992	0.0301	1.634269490812023	0.47524608589413675	0.129	1.8258085930799073	0.16362974491709087	0.023	1.8873850036715265	0.067835054038594	0.2179	1.9365650637910972	0.11277119574822454	0.1804	1.8351296705690407	0.10315728897796544	-0.0119	0.9783272716981707	1.2532599538707727	0.0008	0.8392267504588937	1.478127002685935	0.0655	0.9321037764544589	1.3463006695717503	0.1076	0.8255762917128217	1.0906799896539878	-0.01275	0.8111138391853278	0.853288532194965	0.0702	1.0163699376032678	0.710125973521124	0.1076	1.1701806393924483	1.3282611651996281	-0.01275	1.4118446684760095	1.2727352118454809	0.0702	1.4355615390986238	1.0439121678676295	0.1076
